{
	"asset":{
		"generator":"Khronos glTF Blender I/O v4.4.56",
		"version":"2.0"
	},
	"extensionsUsed":[
		"KHR_texture_transform"
	],
	"extensionsRequired":[
		"KHR_texture_transform"
	],
	"scene":0,
	"scenes":[
		{
			"name":"Scene",
			"nodes":[
				2
			]
		}
	],
	"nodes":[
		{
			"mesh":0,
			"name":"leaves.003"
		},
		{
			"mesh":1,
			"name":"trunk.003"
		},
		{
			"children":[
				0,
				1
			],
			"name":"Tree3"
		}
	],
	"materials":[
		{
			"alphaMode":"MASK",
			"doubleSided":true,
			"name":"leaves_texture",
			"pbrMetallicRoughness":{
				"baseColorTexture":{
					"index":0
				},
				"metallicFactor":0.5,
				"roughnessFactor":0.8500000238418579
			}
		},
		{
			"name":"branches.001",
			"pbrMetallicRoughness":{
				"baseColorFactor":[
					0.6172065734863281,
					0.6038273572921753,
					0.5149176716804504,
					1
				],
				"baseColorTexture":{
					"extensions":{
						"KHR_texture_transform":{
							"offset":[
								0,
								-0.800000011920929
							],
							"scale":[
								2,
								1
							]
						}
					},
					"index":1
				},
				"metallicFactor":0,
				"roughnessFactor":0.8500000238418579
			}
		}
	],
	"meshes":[
		{
			"name":"Mesh_1.003",
			"primitives":[
				{
					"attributes":{
						"POSITION":0,
						"NORMAL":1,
						"TEXCOORD_0":2
					},
					"indices":3,
					"material":0
				}
			]
		},
		{
			"name":"Mesh_0.003",
			"primitives":[
				{
					"attributes":{
						"POSITION":4,
						"NORMAL":5,
						"TEXCOORD_0":6
					},
					"indices":7,
					"material":1
				}
			]
		}
	],
	"textures":[
		{
			"sampler":0,
			"source":0
		},
		{
			"sampler":1,
			"source":1
		}
	],
	"images":[
		{
			"mimeType":"image/png",
			"name":"leaves1.png",
			"uri":"leaves1_png.png"
		},
		{
			"mimeType":"image/png",
			"name":"bark_texture_diffuse",
			"uri":"bark_texture_diffuse.png"
		}
	],
	"accessors":[
		{
			"bufferView":0,
			"componentType":5126,
			"count":2188,
			"max":[
				48.96039962768555,
				122.01042175292969,
				43.62247848510742
			],
			"min":[
				-48.65723419189453,
				28.516857147216797,
				-40.684444427490234
			],
			"type":"VEC3"
		},
		{
			"bufferView":1,
			"componentType":5126,
			"count":2188,
			"type":"VEC3"
		},
		{
			"bufferView":2,
			"componentType":5126,
			"count":2188,
			"type":"VEC2"
		},
		{
			"bufferView":3,
			"componentType":5123,
			"count":3240,
			"type":"SCALAR"
		},
		{
			"bufferView":4,
			"componentType":5126,
			"count":834,
			"max":[
				28.338886260986328,
				102.43058013916016,
				28.27077293395996
			],
			"min":[
				-30.07290267944336,
				0,
				-29.151653289794922
			],
			"type":"VEC3"
		},
		{
			"bufferView":5,
			"componentType":5126,
			"count":834,
			"type":"VEC3"
		},
		{
			"bufferView":6,
			"componentType":5126,
			"count":834,
			"type":"VEC2"
		},
		{
			"bufferView":7,
			"componentType":5123,
			"count":3204,
			"type":"SCALAR"
		}
	],
	"bufferViews":[
		{
			"buffer":0,
			"byteLength":26256,
			"byteOffset":0,
			"target":34962
		},
		{
			"buffer":0,
			"byteLength":26256,
			"byteOffset":26256,
			"target":34962
		},
		{
			"buffer":0,
			"byteLength":17504,
			"byteOffset":52512,
			"target":34962
		},
		{
			"buffer":0,
			"byteLength":6480,
			"byteOffset":70016,
			"target":34963
		},
		{
			"buffer":0,
			"byteLength":10008,
			"byteOffset":76496,
			"target":34962
		},
		{
			"buffer":0,
			"byteLength":10008,
			"byteOffset":86504,
			"target":34962
		},
		{
			"buffer":0,
			"byteLength":6672,
			"byteOffset":96512,
			"target":34962
		},
		{
			"buffer":0,
			"byteLength":6408,
			"byteOffset":103184,
			"target":34963
		}
	],
	"samplers":[
		{
			"magFilter":9729,
			"minFilter":9987,
			"wrapS":33071,
			"wrapT":33071
		},
		{
			"magFilter":9729,
			"minFilter":9987
		}
	],
	"buffers":[
		{
			"byteLength":109592,
			"uri":"Tree3.bin"
		}
	]
}
