{
	"asset":{
		"generator":"Khronos glTF Blender I/O v4.4.56",
		"version":"2.0"
	},
	"extensionsUsed":[
		"KHR_texture_transform"
	],
	"extensionsRequired":[
		"KHR_texture_transform"
	],
	"scene":0,
	"scenes":[
		{
			"name":"Scene",
			"nodes":[
				2
			]
		}
	],
	"nodes":[
		{
			"mesh":0,
			"name":"leaves.008"
		},
		{
			"mesh":1,
			"name":"trunk.008"
		},
		{
			"children":[
				0,
				1
			],
			"name":"Tree8"
		}
	],
	"materials":[
		{
			"alphaMode":"MASK",
			"doubleSided":true,
			"name":"leaves_texture",
			"pbrMetallicRoughness":{
				"baseColorTexture":{
					"index":0
				},
				"metallicFactor":0.5,
				"roughnessFactor":0.8500000238418579
			}
		},
		{
			"name":"branches.001",
			"pbrMetallicRoughness":{
				"baseColorFactor":[
					0.6172065734863281,
					0.6038273572921753,
					0.5149176716804504,
					1
				],
				"baseColorTexture":{
					"extensions":{
						"KHR_texture_transform":{
							"offset":[
								0,
								-0.800000011920929
							],
							"scale":[
								2,
								1
							]
						}
					},
					"index":1
				},
				"metallicFactor":0,
				"roughnessFactor":0.8500000238418579
			}
		}
	],
	"meshes":[
		{
			"name":"Mesh_1.008",
			"primitives":[
				{
					"attributes":{
						"POSITION":0,
						"NORMAL":1,
						"TEXCOORD_0":2
					},
					"indices":3,
					"material":0
				}
			]
		},
		{
			"name":"Mesh_0.008",
			"primitives":[
				{
					"attributes":{
						"POSITION":4,
						"NORMAL":5,
						"TEXCOORD_0":6
					},
					"indices":7,
					"material":1
				}
			]
		}
	],
	"textures":[
		{
			"sampler":0,
			"source":0
		},
		{
			"sampler":1,
			"source":1
		}
	],
	"images":[
		{
			"mimeType":"image/png",
			"name":"leaves1.png",
			"uri":"leaves1_png.png"
		},
		{
			"mimeType":"image/png",
			"name":"bark_texture_diffuse",
			"uri":"bark_texture_diffuse.png"
		}
	],
	"accessors":[
		{
			"bufferView":0,
			"componentType":5126,
			"count":480,
			"max":[
				17.304243087768555,
				52.60297393798828,
				18.657859802246094
			],
			"min":[
				-16.299203872680664,
				13.415165901184082,
				-12.05484390258789
			],
			"type":"VEC3"
		},
		{
			"bufferView":1,
			"componentType":5126,
			"count":480,
			"type":"VEC3"
		},
		{
			"bufferView":2,
			"componentType":5126,
			"count":480,
			"type":"VEC2"
		},
		{
			"bufferView":3,
			"componentType":5123,
			"count":720,
			"type":"SCALAR"
		},
		{
			"bufferView":4,
			"componentType":5126,
			"count":690,
			"max":[
				11.169051170349121,
				42.56155014038086,
				9.946441650390625
			],
			"min":[
				-9.896520614624023,
				0,
				-4.996107578277588
			],
			"type":"VEC3"
		},
		{
			"bufferView":5,
			"componentType":5126,
			"count":690,
			"type":"VEC3"
		},
		{
			"bufferView":6,
			"componentType":5126,
			"count":690,
			"type":"VEC2"
		},
		{
			"bufferView":7,
			"componentType":5123,
			"count":2670,
			"type":"SCALAR"
		}
	],
	"bufferViews":[
		{
			"buffer":0,
			"byteLength":5760,
			"byteOffset":0,
			"target":34962
		},
		{
			"buffer":0,
			"byteLength":5760,
			"byteOffset":5760,
			"target":34962
		},
		{
			"buffer":0,
			"byteLength":3840,
			"byteOffset":11520,
			"target":34962
		},
		{
			"buffer":0,
			"byteLength":1440,
			"byteOffset":15360,
			"target":34963
		},
		{
			"buffer":0,
			"byteLength":8280,
			"byteOffset":16800,
			"target":34962
		},
		{
			"buffer":0,
			"byteLength":8280,
			"byteOffset":25080,
			"target":34962
		},
		{
			"buffer":0,
			"byteLength":5520,
			"byteOffset":33360,
			"target":34962
		},
		{
			"buffer":0,
			"byteLength":5340,
			"byteOffset":38880,
			"target":34963
		}
	],
	"samplers":[
		{
			"magFilter":9729,
			"minFilter":9987,
			"wrapS":33071,
			"wrapT":33071
		},
		{
			"magFilter":9729,
			"minFilter":9987
		}
	],
	"buffers":[
		{
			"byteLength":44220,
			"uri":"Tree8.bin"
		}
	]
}
