{
	"asset":{
		"generator":"Khronos glTF Blender I/O v4.4.56",
		"version":"2.0"
	},
	"extensionsUsed":[
		"KHR_texture_transform"
	],
	"extensionsRequired":[
		"KHR_texture_transform"
	],
	"scene":0,
	"scenes":[
		{
			"name":"Scene",
			"nodes":[
				2
			]
		}
	],
	"nodes":[
		{
			"mesh":0,
			"name":"leaves.007"
		},
		{
			"mesh":1,
			"name":"trunk.007"
		},
		{
			"children":[
				0,
				1
			],
			"name":"Tree7"
		}
	],
	"materials":[
		{
			"alphaMode":"MASK",
			"doubleSided":true,
			"name":"leaves_texture",
			"pbrMetallicRoughness":{
				"baseColorTexture":{
					"index":0
				},
				"metallicFactor":0.5,
				"roughnessFactor":0.8500000238418579
			}
		},
		{
			"name":"branches.001",
			"pbrMetallicRoughness":{
				"baseColorFactor":[
					0.6172065734863281,
					0.6038273572921753,
					0.5149176716804504,
					1
				],
				"baseColorTexture":{
					"extensions":{
						"KHR_texture_transform":{
							"offset":[
								0,
								-0.800000011920929
							],
							"scale":[
								2,
								1
							]
						}
					},
					"index":1
				},
				"metallicFactor":0,
				"roughnessFactor":0.8500000238418579
			}
		}
	],
	"meshes":[
		{
			"name":"Mesh_1.007",
			"primitives":[
				{
					"attributes":{
						"POSITION":0,
						"NORMAL":1,
						"TEXCOORD_0":2
					},
					"indices":3,
					"material":0
				}
			]
		},
		{
			"name":"Mesh_0.007",
			"primitives":[
				{
					"attributes":{
						"POSITION":4,
						"NORMAL":5,
						"TEXCOORD_0":6
					},
					"indices":7,
					"material":1
				}
			]
		}
	],
	"textures":[
		{
			"sampler":0,
			"source":0
		},
		{
			"sampler":1,
			"source":1
		}
	],
	"images":[
		{
			"mimeType":"image/png",
			"name":"leaves1.png",
			"uri":"leaves1_png.png"
		},
		{
			"mimeType":"image/png",
			"name":"bark_texture_diffuse",
			"uri":"bark_texture_diffuse.png"
		}
	],
	"accessors":[
		{
			"bufferView":0,
			"componentType":5126,
			"count":688,
			"max":[
				29.468883514404297,
				80.27139282226562,
				16.615337371826172
			],
			"min":[
				-17.51766014099121,
				26.0537052154541,
				-24.834291458129883
			],
			"type":"VEC3"
		},
		{
			"bufferView":1,
			"componentType":5126,
			"count":688,
			"type":"VEC3"
		},
		{
			"bufferView":2,
			"componentType":5126,
			"count":688,
			"type":"VEC2"
		},
		{
			"bufferView":3,
			"componentType":5123,
			"count":1008,
			"type":"SCALAR"
		},
		{
			"bufferView":4,
			"componentType":5126,
			"count":210,
			"max":[
				13.85351276397705,
				60.39177322387695,
				2.415346145629883
			],
			"min":[
				-4.975942611694336,
				0,
				-10.835344314575195
			],
			"type":"VEC3"
		},
		{
			"bufferView":5,
			"componentType":5126,
			"count":210,
			"type":"VEC3"
		},
		{
			"bufferView":6,
			"componentType":5126,
			"count":210,
			"type":"VEC2"
		},
		{
			"bufferView":7,
			"componentType":5123,
			"count":900,
			"type":"SCALAR"
		}
	],
	"bufferViews":[
		{
			"buffer":0,
			"byteLength":8256,
			"byteOffset":0,
			"target":34962
		},
		{
			"buffer":0,
			"byteLength":8256,
			"byteOffset":8256,
			"target":34962
		},
		{
			"buffer":0,
			"byteLength":5504,
			"byteOffset":16512,
			"target":34962
		},
		{
			"buffer":0,
			"byteLength":2016,
			"byteOffset":22016,
			"target":34963
		},
		{
			"buffer":0,
			"byteLength":2520,
			"byteOffset":24032,
			"target":34962
		},
		{
			"buffer":0,
			"byteLength":2520,
			"byteOffset":26552,
			"target":34962
		},
		{
			"buffer":0,
			"byteLength":1680,
			"byteOffset":29072,
			"target":34962
		},
		{
			"buffer":0,
			"byteLength":1800,
			"byteOffset":30752,
			"target":34963
		}
	],
	"samplers":[
		{
			"magFilter":9729,
			"minFilter":9987,
			"wrapS":33071,
			"wrapT":33071
		},
		{
			"magFilter":9729,
			"minFilter":9987
		}
	],
	"buffers":[
		{
			"byteLength":32552,
			"uri":"Tree7.bin"
		}
	]
}
