{
	"asset":{
		"generator":"Khronos glTF Blender I/O v4.4.56",
		"version":"2.0"
	},
	"extensionsUsed":[
		"KHR_texture_transform"
	],
	"extensionsRequired":[
		"KHR_texture_transform"
	],
	"scene":0,
	"scenes":[
		{
			"name":"Scene",
			"nodes":[
				2
			]
		}
	],
	"nodes":[
		{
			"mesh":0,
			"name":"leaves.004"
		},
		{
			"mesh":1,
			"name":"trunk.004"
		},
		{
			"children":[
				0,
				1
			],
			"name":"Tree4"
		}
	],
	"materials":[
		{
			"alphaMode":"MASK",
			"doubleSided":true,
			"name":"leaves_texture",
			"pbrMetallicRoughness":{
				"baseColorTexture":{
					"index":0
				},
				"metallicFactor":0.5,
				"roughnessFactor":0.8500000238418579
			}
		},
		{
			"name":"branches.001",
			"pbrMetallicRoughness":{
				"baseColorFactor":[
					0.6172065734863281,
					0.6038273572921753,
					0.5149176716804504,
					1
				],
				"baseColorTexture":{
					"extensions":{
						"KHR_texture_transform":{
							"offset":[
								0,
								-0.800000011920929
							],
							"scale":[
								2,
								1
							]
						}
					},
					"index":1
				},
				"metallicFactor":0,
				"roughnessFactor":0.8500000238418579
			}
		}
	],
	"meshes":[
		{
			"name":"Mesh_1.004",
			"primitives":[
				{
					"attributes":{
						"POSITION":0,
						"NORMAL":1,
						"TEXCOORD_0":2
					},
					"indices":3,
					"material":0
				}
			]
		},
		{
			"name":"Mesh_0.004",
			"primitives":[
				{
					"attributes":{
						"POSITION":4,
						"NORMAL":5,
						"TEXCOORD_0":6
					},
					"indices":7,
					"material":1
				}
			]
		}
	],
	"textures":[
		{
			"sampler":0,
			"source":0
		},
		{
			"sampler":1,
			"source":1
		}
	],
	"images":[
		{
			"mimeType":"image/png",
			"name":"leaves1.png",
			"uri":"leaves1_png.png"
		},
		{
			"mimeType":"image/png",
			"name":"bark_texture_diffuse",
			"uri":"bark_texture_diffuse.png"
		}
	],
	"accessors":[
		{
			"bufferView":0,
			"componentType":5126,
			"count":2196,
			"max":[
				49.165775299072266,
				120.44664001464844,
				45.30799102783203
			],
			"min":[
				-45.30036163330078,
				29.362695693969727,
				-39.9004020690918
			],
			"type":"VEC3"
		},
		{
			"bufferView":1,
			"componentType":5126,
			"count":2196,
			"type":"VEC3"
		},
		{
			"bufferView":2,
			"componentType":5126,
			"count":2196,
			"type":"VEC2"
		},
		{
			"bufferView":3,
			"componentType":5123,
			"count":3240,
			"type":"SCALAR"
		},
		{
			"bufferView":4,
			"componentType":5126,
			"count":834,
			"max":[
				30.939971923828125,
				102.79339599609375,
				28.949356079101562
			],
			"min":[
				-27.89240074157715,
				0,
				-23.904983520507812
			],
			"type":"VEC3"
		},
		{
			"bufferView":5,
			"componentType":5126,
			"count":834,
			"type":"VEC3"
		},
		{
			"bufferView":6,
			"componentType":5126,
			"count":834,
			"type":"VEC2"
		},
		{
			"bufferView":7,
			"componentType":5123,
			"count":3204,
			"type":"SCALAR"
		}
	],
	"bufferViews":[
		{
			"buffer":0,
			"byteLength":26352,
			"byteOffset":0,
			"target":34962
		},
		{
			"buffer":0,
			"byteLength":26352,
			"byteOffset":26352,
			"target":34962
		},
		{
			"buffer":0,
			"byteLength":17568,
			"byteOffset":52704,
			"target":34962
		},
		{
			"buffer":0,
			"byteLength":6480,
			"byteOffset":70272,
			"target":34963
		},
		{
			"buffer":0,
			"byteLength":10008,
			"byteOffset":76752,
			"target":34962
		},
		{
			"buffer":0,
			"byteLength":10008,
			"byteOffset":86760,
			"target":34962
		},
		{
			"buffer":0,
			"byteLength":6672,
			"byteOffset":96768,
			"target":34962
		},
		{
			"buffer":0,
			"byteLength":6408,
			"byteOffset":103440,
			"target":34963
		}
	],
	"samplers":[
		{
			"magFilter":9729,
			"minFilter":9987,
			"wrapS":33071,
			"wrapT":33071
		},
		{
			"magFilter":9729,
			"minFilter":9987
		}
	],
	"buffers":[
		{
			"byteLength":109848,
			"uri":"Tree4.bin"
		}
	]
}
